<svg width="44" height="35" viewBox="0 0 44 35" fill="none" xmlns="http://www.w3.org/2000/svg">
<g clip-path="url(#clip0_1_101)">
<path fill-rule="evenodd" clip-rule="evenodd" d="M5.95026 2.97702C5.95026 2.19051 5.63878 1.43621 5.0843 0.880063C4.52983 0.323915 3.77782 0.0114746 2.99369 0.0114746C2.20955 0.0114746 1.45754 0.323915 0.903072 0.880063C0.348608 1.43621 0.0371127 2.19051 0.0371126 2.97702H2.99369H5.95026ZM0.0371126 2.97702H5.95026V10.9973C7.82824 9.84305 10.0371 9.17767 12.401 9.17767C16.1107 9.17767 19.4389 10.8165 21.7051 13.4118C22.0778 12.866 22.4563 12.4118 22.8075 12.0596C30.8671 4.81544 38.3068 9.84538 41.2574 13.5163C41.2606 13.5204 41.2635 13.5248 41.2661 13.5294C41.3965 13.7692 41.1865 14.1709 41.0112 14.3798L32.8632 24.0909C31.5045 25.7103 32.4143 28.1366 34.2595 27.1096C34.3787 27.0433 34.4949 26.9731 34.6079 26.8995C36.1182 25.9169 38.29 25.4947 39.6026 26.7305C40.6596 27.7254 40.7685 29.4016 39.7034 30.3877C32.4766 37.0787 25.1959 32.9233 21.9582 29.4471C19.6906 32.215 16.2513 33.9804 12.401 33.9804C5.57259 33.9804 0.0371094 28.4281 0.0371094 21.579C0.0371094 21.4889 0.0380681 21.399 0.0399758 21.3093L0.0371094 21.3095L0.0371126 2.97702ZM19.1204 21.579C19.1204 25.3014 16.1121 28.3189 12.401 28.3189C8.68991 28.3189 5.68146 25.3014 5.68146 21.579C5.68146 17.8567 8.68991 14.8392 12.401 14.8392C16.1121 14.8392 19.1204 17.8567 19.1204 21.579ZM32.9747 15.2935L26.4607 23.624C25.9231 24.3361 24.6889 20.0127 26.8392 16.9123C28.3818 14.6882 31.1923 14.538 32.79 14.7899C33.0271 14.8273 33.1227 15.1041 32.9747 15.2935Z" fill="url(#paint0_linear_1_101)"/>
<path d="M41.8294 33.9805C43.0233 33.9805 43.9911 33.0098 43.9911 31.8123C43.9911 30.6148 43.0233 29.644 41.8294 29.644C40.6355 29.644 39.6677 30.6148 39.6677 31.8123C39.6677 33.0098 40.6355 33.9805 41.8294 33.9805Z" fill="#5951D1"/>
</g>
<defs>
<linearGradient id="paint0_linear_1_101" x1="30.1261" y1="8.36892" x2="30.1261" y2="33.9507" gradientUnits="userSpaceOnUse">
<stop stop-color="#5984C0"/>
<stop offset="1" stop-color="#5844D5"/>
</linearGradient>
<clipPath id="clip0_1_101">
<rect width="44" height="34" fill="white"/>
</clipPath>
</defs>
</svg>
